# Blender v2.70 (sub 2) OBJ File: ''
# www.blender.org
mtllib plane4.mtl
o Cube.002
v 0.000001 -0.023363 -0.000000
v 0.000000 -0.023363 8.045116
v -8.045117 -0.023363 8.045115
v -8.045115 -0.023363 -0.000002
v -0.000001 0.023363 0.000002
v -8.045117 0.023363 -0.000002
v -8.045119 0.023363 8.045114
v -0.000005 0.023363 8.045117
v 8.045116 -0.023363 0.000001
v 8.045115 0.023363 0.000005
v 8.045111 0.023363 8.045121
v 8.045116 -0.023363 8.045116
v -8.045115 0.023363 -8.045116
v -8.045114 -0.023363 -8.045119
v 0.000002 0.023363 -8.045115
v 0.000002 -0.023363 -8.045117
v 8.045120 0.023363 -8.045112
v 8.045116 -0.023363 -8.045115
vt 0.000000 0.000000
vt 1.000000 0.000000
vt 1.000000 1.000000
vt 0.000000 1.000000
vn 0.000000 -1.000000 -0.000000
vn -0.000000 1.000000 0.000000
vn 1.000000 0.000082 0.000000
vn -0.000000 0.000010 1.000000
vn -1.000000 -0.000041 -0.000000
vn 0.000000 0.000051 -1.000000
vn -0.000000 -0.000061 1.000000
vn 0.000000 0.000061 -1.000000
vn 1.000000 -0.000036 0.000000
usemtl Material.002
s off
f 1/1/1 2/2/1 3/3/1 4/4/1
f 5/1/2 6/2/2 7/3/2 8/4/2
f 9/1/3 10/2/3 11/3/3 12/4/3
f 2/1/4 8/2/4 7/3/4 3/4/4
f 4/1/5 6/2/5 13/3/5 14/4/5
f 15/1/6 16/2/6 14/3/6 13/4/6
f 2/3/1 1/4/1 9/1/1 12/2/1
f 10/1/2 5/2/2 8/3/2 11/4/2
f 12/1/7 11/2/7 8/3/7 2/4/7
f 17/1/8 18/2/8 16/3/8 15/4/8
f 16/1/1 1/2/1 4/3/1 14/4/1
f 15/1/2 13/2/2 6/3/2 5/4/2
f 18/1/9 17/2/9 10/3/9 9/4/9
f 3/1/5 7/2/5 6/3/5 4/4/5
f 1/3/1 16/4/1 18/1/1 9/2/1
f 17/1/2 15/2/2 5/3/2 10/4/2
